<?xml version="1.0" encoding="UTF-8" standalone="no"?>
<!-- Created with Inkscape (http://www.inkscape.org/) -->

<svg
   xmlns:dc="http://purl.org/dc/elements/1.1/"
   xmlns:cc="http://creativecommons.org/ns#"
   xmlns:rdf="http://www.w3.org/1999/02/22-rdf-syntax-ns#"
   xmlns:svg="http://www.w3.org/2000/svg"
   xmlns="http://www.w3.org/2000/svg"
   xmlns:sodipodi="http://sodipodi.sourceforge.net/DTD/sodipodi-0.dtd"
   xmlns:inkscape="http://www.inkscape.org/namespaces/inkscape"
   id="svg4136"
   version="1.1"
   inkscape:version="0.91 r13725"
   width="1280"
   height="675"
   viewBox="0 0 1280 675"
   sodipodi:docname="canvas.svg">
  <metadata
     id="metadata4142">
    <rdf:RDF>
      <cc:Work
         rdf:about="">
        <dc:format>image/svg+xml</dc:format>
        <dc:type
           rdf:resource="http://purl.org/dc/dcmitype/StillImage" />
        <dc:title></dc:title>
      </cc:Work>
    </rdf:RDF>
  </metadata>
  <defs
     id="defs4140" />
  <sodipodi:namedview
     pagecolor="#ffffff"
     bordercolor="#666666"
     borderopacity="1"
     objecttolerance="10"
     gridtolerance="10"
     guidetolerance="10"
     inkscape:pageopacity="0"
     inkscape:pageshadow="2"
     inkscape:window-width="1280"
     inkscape:window-height="746"
     id="namedview4138"
     showgrid="false"
     inkscape:zoom="0.65859375"
     inkscape:cx="640"
     inkscape:cy="337.5"
     inkscape:window-x="0"
     inkscape:window-y="0"
     inkscape:window-maximized="1"
     inkscape:current-layer="svg4136" />
  <g
     transform="matrix(5.4381557,0,0,5.4381557,-2586.4515,-3198.8111)"
     id="g5809">
    <g
       style="display:inline;opacity:1;fill:#8080ff;filter:url(#filter4147);enable-background:new"
       transform="matrix(0.56834646,0,0,0.56834646,496.07974,421.21449)"
       id="g4178">
      <path
         inkscape:connector-curvature="0"
         id="path4765"
         d="m 27.691197,471.143 -3.7659,-2.55561 -2.1881,2.05561 c -3.15738,2.96621 -4.326,2.56597 -5.67734,-1.94439 -1.14149,-3.80996 -1.39283,-4.00168 -5.29014,-4.03544 -2.2504401,-0.0195 -5.1089501,-0.60035 -6.3522501,-1.29082 -2.19064,-1.21657 -1.88005,-1.63153 10.0464501,-13.42232 13.82531,-13.66799 18.02428,-16.19531 26.96409,-16.22946 3.1625,-0.0121 5.75,0.32902 5.75,0.75799 0,0.42898 -1.58049,2.27072 -3.51221,4.09276 -7.408,6.98741 -12.21208,19.82066 -11.17638,29.85568 0.29925,2.89939 0.18939,5.27161 -0.24412,5.27161 -0.43351,0 -2.48285,-1.15002 -4.5541,-2.55561 z m 41.82849,-9.15127 c -3.75069,-10.69828 -7.07845,-18.13977 -10.03209,-22.43361 l -3.55653,-5.17029 7.16391,0.6006 c 9.4299,0.79057 16.61842,4.17156 24.15629,11.36147 5.94716,5.67263 5.98654,5.74682 3.71878,7.00559 -1.26063,0.69974 -3.52954,1.2882 -5.04204,1.30768 -2.17002,0.028 -2.75323,0.50997 -2.76531,2.28544 -0.0279,4.09439 -1.40037,5.17897 -4.21775,3.33295 -2.26022,-1.48095 -2.60289,-1.48555 -3.79355,-0.0509 -0.7199,0.86742 -2.14009,2.02196 -3.15598,2.56565 -1.43586,0.76845 -1.98704,0.58932 -2.47573,-0.8046 z m 36.382083,-10.95171 c -1.3292,-2.11277 -2.98388,-5.56882 -3.67707,-7.68011 -1.07883,-3.28579 -1.56904,-3.73639 -3.403513,-3.12843 -1.17875,0.39065 -4.10353,0.92968 -6.49952,1.19785 l -4.35634,0.48758 0.85634,-4.35915 c 0.47099,-2.39753 0.85634,-7.21109 0.85634,-10.69679 0,-5.70447 -0.28031,-6.57865 -2.80576,-8.75 -1.70856,-1.469 -4.05489,-2.40854 -6,-2.40259 -3.99371,0.0122 -13.25846,4.24503 -17.07982,7.80331 l -2.88559,2.68692 0.66027,-3 c 1.25597,-5.70667 7.92215,-17.61088 11.53294,-20.59508 5.76937,-4.7682 10.75779,-6.64216 25.07796,-9.42084 8.010563,-1.55436 16.083163,-3.81005 19.852713,-5.54734 3.494,-1.61029 6.7565,-2.67826 7.25,-2.37326 1.49488,0.92389 1.00924,5.79404 -0.96364,9.66371 l -1.86091,3.65008 3.28899,3.18782 c 3.1847,3.08673 9.43284,13.56885 9.43284,15.82489 0,0.61051 -1.4625,1.11691 -3.25,1.12533 -5.56535,0.0262 -6.13477,0.94992 -4.33065,7.02505 1.81911,6.12561 2.0301,13.80107 0.52807,19.20964 -1.19693,4.30995 -1.89984,4.56504 -4.54007,1.64762 -1.04645,-1.15631 -3.05149,-2.69648 -4.45566,-3.4226 -2.47914,-1.28202 -2.61992,-1.17931 -4.86488,3.54923 -1.27153,2.6782 -3.12962,5.6095 -4.12909,6.51401 -1.71181,1.54917 -1.95741,1.42173 -4.23395,-2.19685 z m -110.0121331,-1.3536 c -1.40694,-1.1067 -2.86006,-3.3871 -3.22915,-5.06757 -0.84645,-3.85387 -2.9299099,-4.67787 -6.4982399,-2.57 -1.53606,0.90737 -3.01687,1.64976 -3.29071,1.64976 -1.21927,0 -2.62389,-6.58803 -2.10555,-9.87554 0.57146,-3.62437 0.57133,-3.62452 -5.54456,-6.30621 l -6.11603,-2.68174 3.95601,-5.2268 3.95602,-5.2268 -3.05175,-3.7975 c -3.418,-4.25324 -4.6341,-11.73412 -1.78767,-10.99693 6.53733,1.6931 12.33139,1.1952 22.6683299,-1.94792 13.98259,-4.25165 20.9363101,-4.3428 29.0649301,-0.38099 10.27679,5.00881 19.57193,16.86338 22.10407,28.19043 0.52254,2.3375 0.70197,4.25 0.39874,4.25 -0.30323,0 -2.92605,-1.83208 -5.82848,-4.07129 -6.16262,-4.75443 -13.88009,-7.93781 -19.16832,-7.90675 -12.1890501,0.0716 -21.99051013,12.83913 -21.06114013,27.43459 0.45974,7.22007 -0.19884,7.8882 -4.46649997,4.53126 z M 49.155077,424.94861 c -3.62817,-9.6288 -6.85544,-25.80501 -9.02769,-45.25 -3.86703,-34.6158 -5.23805,-41.40353 -10.11597,-50.08262 -1.20402,-2.14226 -1.84659,-4.23754 -1.42793,-4.65619 0.41865,-0.41866 2.72369,-0.76119 5.12231,-0.76119 3.56134,0 4.97304,0.59309 7.69784,3.23407 l 3.33671,3.23407 1.84755,-3.43068 c 1.01615,-1.88688 2.85542,-4.37753 4.08726,-5.53479 l 2.23971,-2.1041 2.78311,3.30071 c 1.53071,1.8154 3.43677,4.86092 4.2357,6.76783 l 1.4526,3.4671 2.00504,-2.75248 c 2.45548,-3.37083 9.63203,-7.23639 10.96322,-5.9052 0.51621,0.51621 1.19746,3.44694 1.51388,6.51273 l 0.5753,5.57417 2.61715,-1.86982 c 3.44565,-2.46175 9.02834,-2.96932 11.99455,-1.09053 1.06712,0.6759 -0.0608,2.64365 -5.00663,8.73468 -11.183,13.77235 -16.39651,26.07698 -23.38345,55.18841 -3.97877,16.57768 -9.23066,33.17383 -10.49795,33.17383 -0.46513,0 -1.82067,-2.5875 -3.01231,-5.75 z m -18.2262,-30.75175 c -9.31531,-8.67453 -16.96197,-11.76372 -29.2508701,-11.81712 -6.29494,-0.0273 -10.16382,0.46554 -12.8721299,1.63989 -2.12966,0.92344 -4.04216,1.67898 -4.25,1.67898 -1.15741,0 -0.0313,-5.20244 2.1319,-9.8493 1.36962,-2.94211 2.49023,-5.52831 2.49023,-5.74712 0,-0.2188 -1.66142,-2.23681 -3.69205,-4.48447 -4.37191,-4.83919 -3.96708,-6.18928 2.91842,-9.73268 l 4.5144899,-2.32324 -1.49323,-5.09392 c -1.23181,-4.2021 -1.28374,-6.03006 -0.29661,-10.44104 l 1.19664,-5.34713 11.64238,10.75945 c 20.6962601,19.1267 25.1813001,24.03668 28.7405701,31.46363 3.28331,6.85112 5.91742,18.34234 5.29452,23.09714 -0.30806,2.35146 -0.67961,2.15171 -7.07426,-3.80307 z m 36.29333,4.20959 c -0.0937,-3.80006 3.12324,-16.83759 5.45629,-22.11304 3.78908,-8.56776 8.11721,-12.58638 20.05984,-18.62531 8.476033,-4.286 11.722633,-6.57266 15.924763,-11.21615 5.19775,-5.7437 5.28814,-5.79298 5.93063,-3.23309 0.92557,3.68777 -0.258,9.23254 -3.11117,14.57514 l -2.45412,4.5954 2.45715,3.62081 c 3.00593,4.42949 4.0734,9.55612 2.7271,13.09716 -1.00536,2.64428 -1.02345,2.64841 -4.26419,0.97256 -5.43635,-2.81125 -15.273973,-2.95575 -22.239503,-0.32668 -6.68346,2.5226 -14.87601,9.88709 -18.36903,16.51238 -1.25139,2.37353 -2.09109,3.22238 -2.11776,2.14082 z"
         style="opacity:1;fill:#8080ff;fill-opacity:1" />
    </g>
    <path
       style="display:inline;opacity:1;fill:#0000aa;fill-opacity:1;filter:url(#filter4147);enable-background:new"
       d="m 509.61994,678.65326 c 0.37539,-1.77474 2.89473,-5.72056 4.62212,-7.23922 2.00384,-1.76171 5.58731,-3.39067 5.8336,-2.65183 0.12574,0.37721 -0.12945,0.79706 -0.56708,0.93299 -0.85158,0.26451 -7.50598,6.92946 -9.21094,9.22553 l -1.02675,1.38274 0.34905,-1.65021 z m 28.48702,-3.52407 c -0.89912,-1.08147 -2.81557,-2.6583 -4.25879,-3.50408 -1.80004,-1.0549 -2.31996,-1.59633 -1.65572,-1.72426 1.68107,-0.32375 5.06182,1.69987 6.76281,4.04801 2.63403,3.63618 1.96611,4.56554 -0.8483,1.18033 z m 17.96316,-18.14191 c -5.15416,-5.22398 -12.91814,-5.64637 -19.31222,-1.05066 -1.80713,1.29887 -1.60371,0.002 0.28417,-1.81175 3.38218,-3.24926 9.4556,-4.61521 13.60332,-3.05948 2.63678,0.989 5.67951,3.33726 7.23776,5.58582 2.60271,3.75571 1.72198,3.91897 -1.81303,0.33607 z m -39.34643,0.22689 c -5.94478,-4.99021 -14.71171,-5.7769 -20.65471,-1.85341 -1.20089,0.79282 -2.33149,1.29344 -2.51244,1.1125 -0.65359,-0.65361 2.45808,-3.25243 5.95622,-4.97456 3.12605,-1.53895 3.98812,-1.72178 6.88132,-1.45943 4.09623,0.37143 7.03778,1.8507 10.25288,5.15607 2.90901,2.99069 2.9642,4.44265 0.0767,2.01883 z m 10.79858,-2.27638 c 0,-7.16458 4.80738,-28.11643 7.65415,-33.35879 1.14627,-2.11089 1.05125,-0.57113 -0.27445,4.44738 -1.35642,5.13482 -4.00096,16.78032 -5.71107,25.14933 -0.68665,3.36035 -1.34299,6.10973 -1.45855,6.10973 -0.11554,0 -0.21008,-1.05645 -0.21008,-2.34765 z m -1.919,0.90481 c -0.54129,-1.41058 -0.41321,-12.83319 0.22598,-20.15433 0.66542,-7.62149 2.2401,-16.17473 2.85682,-15.51739 0.2354,0.25091 0.087,3.78103 -0.32981,7.84471 -0.4168,4.06368 -1.02093,12.08889 -1.3425,17.8338 -0.32157,5.74491 -0.69074,10.55136 -0.82038,10.68101 -0.12965,0.12964 -0.3952,-0.17987 -0.59011,-0.6878 z m -2.32414,-1.54098 c -2.47124,-11.03513 -3.8952,-34.27213 -2.02953,-33.11908 0.23108,0.14281 0.5983,3.27322 0.81603,6.95644 0.37992,6.42689 1.70866,20.85652 2.33067,25.31012 0.32044,2.29437 -0.63159,3.02087 -1.11717,0.85252 z m -8.48797,-12.7878 c -1.24092,-2.3508 -8.13044,-8.8389 -11.99196,-11.29324 -2.37449,-1.50921 -3.10803,-2.22893 -2.41549,-2.36996 1.67926,-0.34197 7.05603,2.49888 10.07601,5.32372 2.67527,2.5024 6.26397,7.80824 6.26397,9.26119 0,1.18146 -1.09903,0.65729 -1.93253,-0.92171 z m 22.96135,-2.22994 c 0,-1.56851 3.58815,-6.60107 6.15724,-8.63583 2.28157,-1.80705 6.60919,-4.018 7.90933,-4.04084 1.43041,-0.0251 0.64958,0.9275 -1.70504,2.08017 -2.9764,1.45707 -7.26098,5.19705 -10.17021,8.8775 -1.51503,1.91666 -2.19132,2.44718 -2.19132,1.719 z"
       id="path4200"
       inkscape:connector-curvature="0" />
  </g>
  <text
     xml:space="preserve"
     style="font-style:normal;font-weight:normal;font-size:40px;line-height:125%;font-family:sans-serif;letter-spacing:0px;word-spacing:0px;fill:#000000;fill-opacity:1;stroke:none;stroke-width:1px;stroke-linecap:butt;stroke-linejoin:miter;stroke-opacity:1"
     x="622.53857"
     y="268.07236"
     id="text5838"
     sodipodi:linespacing="125%"><tspan
       sodipodi:role="line"
       id="tspan5840"
       x="622.53857"
       y="268.07236"
       style="font-style:normal;font-variant:normal;font-weight:normal;font-stretch:normal;font-size:125px;font-family:Lobster;-inkscape-font-specification:Lobster">MND</tspan><tspan
       sodipodi:role="line"
       x="622.53857"
       y="424.32239"
       id="tspan5842"
       style="font-style:normal;font-variant:normal;font-weight:normal;font-stretch:normal;font-size:125px;font-family:Lobster;-inkscape-font-specification:Lobster">Malaysia</tspan></text>
</svg>
